<svg width="32" height="32" viewBox="0 0 32 32" fill="none" xmlns="http://www.w3.org/2000/svg">
<g id="fluent:text-edit-style-24-regular">
<path id="Vector" d="M26.7502 11.2598C27.1484 11.6584 27.4643 12.1315 27.6797 12.6522C27.8951 13.1728 28.0058 13.7308 28.0056 14.2943C28.0053 14.8578 27.8941 15.4157 27.6782 15.9362C27.4624 16.4566 27.1461 16.9295 26.7475 17.3278L17.2502 26.8104C16.8993 27.1601 16.4674 27.4176 15.9928 27.5598L10.2688 29.2798C10.036 29.3498 9.78852 29.3549 9.55305 29.2944C9.31759 29.2339 9.10314 29.1102 8.9329 28.9367C8.76265 28.7632 8.64309 28.5464 8.58715 28.3098C8.53121 28.0732 8.54101 27.8258 8.61549 27.5944L10.4315 21.9571C10.5782 21.5038 10.8315 21.0904 11.1675 20.7531L20.6782 11.2584C21.077 10.8599 21.5505 10.5438 22.0715 10.3283C22.5925 10.1127 23.1509 10.0019 23.7147 10.0021C24.2786 10.0024 24.8368 10.1137 25.3577 10.3297C25.8785 10.5457 26.3517 10.8622 26.7502 11.2611M22.0915 12.6744L12.5808 22.1678C12.4683 22.2801 12.3842 22.4177 12.3355 22.5691L10.9088 26.9998L15.4182 25.6464C15.5763 25.5988 15.7201 25.5127 15.8368 25.3958L25.3328 15.9144C25.7628 15.4846 26.0045 14.9016 26.0046 14.2936C26.0047 13.6856 25.7633 13.1024 25.3335 12.6724C24.9037 12.2424 24.3206 12.0008 23.7126 12.0007C23.1046 12.0005 22.5215 12.2419 22.0915 12.6718M10.8662 3.15976L10.9328 3.29976L15.2702 14.2984L13.7275 15.8384L12.7408 13.3331H7.25683L5.93016 16.6931C5.84161 16.9182 5.67447 17.1036 5.45972 17.2149C5.24496 17.3262 4.99713 17.3559 4.76216 17.2984L4.63149 17.2571C4.40689 17.1681 4.22211 17.0007 4.11133 16.786C4.00054 16.5713 3.97123 16.3237 4.02883 16.0891L4.06883 15.9584L9.07416 3.29843C9.14294 3.12389 9.25942 2.97222 9.41031 2.86074C9.5612 2.74926 9.7404 2.68248 9.92744 2.66802C10.1145 2.65355 10.3018 2.692 10.4681 2.77895C10.6343 2.86591 10.7727 2.99787 10.8675 3.15976M10.0035 6.3891L8.04749 11.3331H11.9515L10.0035 6.3891Z" fill="black"></path>
</g>
</svg>