<svg width="36" height="36" viewBox="0 0 36 36" fill="none" xmlns="http://www.w3.org/2000/svg">
<path d="M28.5 6H7.5C6.30653 6 5.16193 6.47411 4.31802 7.31802C3.47411 8.16193 3 9.30653 3 10.5V25.5C3 26.6935 3.47411 27.8381 4.31802 28.682C5.16193 29.5259 6.30653 30 7.5 30H28.5C29.6935 30 30.8381 29.5259 31.682 28.682C32.5259 27.8381 33 26.6935 33 25.5V10.5C33 9.30653 32.5259 8.16193 31.682 7.31802C30.8381 6.47411 29.6935 6 28.5 6ZM27.495 9L18 16.125L8.505 9H27.495ZM28.5 27H7.5C7.10217 27 6.72064 26.842 6.43934 26.5607C6.15804 26.2794 6 25.8978 6 25.5V10.875L17.1 19.2C17.3596 19.3947 17.6754 19.5 18 19.5C18.3246 19.5 18.6404 19.3947 18.9 19.2L30 10.875V25.5C30 25.8978 29.842 26.2794 29.5607 26.5607C29.2794 26.842 28.8978 27 28.5 27Z" fill="#5F6368" fill-opacity="0.57"></path>
</svg>