<svg width="18" height="18" viewBox="0 0 18 18" fill="none" xmlns="http://www.w3.org/2000/svg">
<path d="M1 4.2H2.77778M2.77778 4.2H17M2.77778 4.2V15.4C2.77778 15.8243 2.96508 16.2313 3.29848 16.5314C3.63187 16.8314 4.08406 17 4.55556 17H13.4444C13.9159 17 14.3681 16.8314 14.7015 16.5314C15.0349 16.2313 15.2222 15.8243 15.2222 15.4V4.2H2.77778ZM5.44444 4.2V2.6C5.44444 2.17565 5.63175 1.76869 5.96514 1.46863C6.29854 1.16857 6.75073 1 7.22222 1H10.7778C11.2493 1 11.7015 1.16857 12.0349 1.46863C12.3683 1.76869 12.5556 2.17565 12.5556 2.6V4.2M10.7778 8.2V13M7.22222 8.2V13" stroke="#D0021B" stroke-linecap="round" stroke-linejoin="round"></path>
</svg>